<svg preserveAspectRatio="none" width="1665" height="873" viewBox="0 0 1665 873" fill="none" xmlns="http://www.w3.org/2000/svg">
<g clip-path="url(#clip0)">
<path fill-rule="evenodd" clip-rule="evenodd" d="M431.758 1049.5C589.541 1049.5 -5.51483 1006.9 279.799 553.069C352.44 437.524 666.363 283.344 728.441 165.634C918.654 -195.047 540.837 -145.861 415.22 -241.618C322.123 -312.585 285.493 -55.3317 157.301 -55.3317C-143.861 -55.3327 -388 178.683 -388 467.356C-388 756.029 130.598 1049.5 431.758 1049.5Z" fill="#CF7ACC"/>
<path fill-rule="evenodd" clip-rule="evenodd" d="M1687.36 525.726C1849.67 498.11 1904 348.415 1904 192.485C1904 36.555 1769.52 -89.8508 1603.62 -89.8508C1437.72 -89.8508 1066.55 -101.163 1159.81 73.2349C1207.44 162.275 1427.61 106.229 1496.81 281.569C1515.46 328.819 1571.02 545.522 1687.36 525.726Z" fill="#CF7ACC"/>
</g>
<defs>
<clipPath id="clip0">
<rect width="1665" height="873" fill="white"/>
</clipPath>
</defs>
</svg>
