<svg xmlns="http://www.w3.org/2000/svg" xmlns:xlink="http://www.w3.org/1999/xlink" width="496" height="433" viewBox="0 0 496 433">
    <defs>
        <path id="a" d="M.34.445h119.816v83.289H.34z"/>
        <path id="c" d="M.74.046h130.216v88.488H.74z"/>
        <path id="e" d="M.229.515h41.813v49.619H.23z"/>
    </defs>
    <g fill="none" fill-rule="evenodd">
        <path fill="#000" d="M278.854 407.369H113.498c-13.04 0-23.61-10.57-23.61-23.61V75.924c0-13.04 10.57-23.61 23.61-23.61h165.356c13.04 0 23.61 10.57 23.61 23.61v307.833c0 13.04-10.57 23.61-23.61 23.61"/>
        <path fill="#FFF" d="M269.095 352.925H123.256c-9.594 0-17.371-7.777-17.371-17.371V96.739c0-9.595 7.777-17.371 17.371-17.371h145.84c9.593 0 17.37 7.776 17.37 17.37v238.816c0 9.594-7.777 17.371-17.37 17.371"/>
        <path fill="#CBD5DA" d="M244.806 432.413c-5.538 0-10.029-4.49-10.029-10.03V285.697c0-5.538 4.49-10.029 10.03-10.029h224.856c5.538 0 10.029 4.491 10.029 10.029v136.688c0 5.539-4.49 10.029-10.03 10.029H244.807z"/>
        <path stroke="#434E54" stroke-linecap="round" stroke-linejoin="round" stroke-width="4.744" d="M209.574 380.849c0 7.4-5.999 13.398-13.399 13.398-7.4 0-13.398-5.998-13.398-13.398 0-7.4 5.999-13.399 13.398-13.399 7.4 0 13.4 5.999 13.4 13.399z"/>
        <path fill="#434E54" d="M219.894 70.64h-39.31a3.684 3.684 0 0 1 0-7.368h39.31a3.684 3.684 0 0 1 0 7.367"/>
        <path fill="#000" d="M348.787 132.742h-9.378l20.334 27.132 15.628 7.508-21.681-32.038a5.92 5.92 0 0 0-4.903-2.602"/>
        <path fill="#000" d="M363.577 168.49a3.924 3.924 0 0 1-5.487-.82l-21.25-28.717a3.923 3.923 0 1 1 6.307-4.666l21.25 28.717a3.923 3.923 0 0 1-.82 5.487"/>
        <path fill="#F0B3A4" d="M380.503 170.456l-20.591-12.336c-1.621-.97-3.336-1.97-5.224-2.02-1.888-.052-4.243 1.234-4.064 3.114.19 2 2.803 3.043 4.245 4.343 3.546 3.197.05 7.063 1.13 11.1.837 3.127 10.579 7.383 13.786 6.936 3.207-.449 6.623-.619 9.535.799l.07-9.792 1.113-2.144zM474.145 88.08c-2.81-9.355-9.941-17.316-18.933-21.134-6.01-2.552-23.577-5.746-27.216 1.88-1.879 3.939 1.436 48.678 12.963 46.672 5.573-.968 7.549-.668 11.323-1.003-.015 1.174 1.229 11.89 1.229 11.89.83.216 6.652-1.132 7.51-1.092 2.356.108 11.997 2.696 14.353 2.804-5.046-5.62-8.012-11.096-8.375-15.404a29.597 29.597 0 0 0-.083-.846c3.724-2.029 6.436-5.76 7.636-9.853 1.324-4.516.947-9.408-.407-13.914M329.769 271.34l-5.583-3.875 5.092-9.47 6.668 4.629z"/>
        <path fill="#646D71" d="M327.757 258.555l23.574-49.95c4.998-10.592 14.176-16.666 31.897-8.637l86.104 34.352-56.564 20.473c-10.4-7.073-36.977-28.537-40.644-28.193-3.739.35-7.338 6.287-9.961 8.974l-27.156 27.831c-2.02-1.032-7.25-4.85-7.25-4.85"/>
        <path fill="#CBD5DA" d="M268.772 216.146H125.706a4.486 4.486 0 0 1 0-8.972h143.066a4.486 4.486 0 0 1 0 8.972"/>
        <path fill="#F0B3A4" d="M349.439 364.584l-5.691-2.425 2.102-11.363 6.797 2.898z"/>
        <path fill="#000" d="M336.5 359.09l13.449 1.777c.546.073.95.59.9 1.157l-.628 7.29c-.095 1.107-1.038 1.89-2.103 1.75l-21.946-2.9.046-.53c.466-5.406 5.07-9.232 10.282-8.543M319.94 267.913l12.435-.396c.506-.017.927.324.942.759l.194 5.605c.03.85-.746 1.564-1.731 1.596l-20.291.647-.016-.407c-.143-4.156 3.648-7.65 8.467-7.804"/>
        <path stroke="#AC67AA" stroke-linecap="round" stroke-linejoin="round" stroke-width="4.8" d="M198.305 11.257c5.055-9.081 7.81-10.927 13.472.739 5.66 11.664 10.384 4.904 12.29-.127 1.907-5.03 6.274-17.278 13.993-.612 7.718 16.667 14.37 3.506 15.953 0"/>
        <path fill="#CBD5DA" d="M64.136 374.815l4.17 33.904c-.045.174-.238.457-.07.529C70 410 94 410 96.573 409.248l4.231-34.433H64.136z"/>
        <path fill="#CE72A8" d="M72.496 278.782c-17.874 7.696-17.312 17.183-12.899 23.625 2.171 3.166 2.798 7.318.61 10.476-13.266 19.14-6.47 32.407 3.936 40.216 8.478 6.36 20.587 7.632 30.832 3.966 23.421-8.384 20.521-29.54 14.191-42.814-.982-2.055-.633-4.482-.07-6.662 3.067-11.876-10.257-40.15-36.6-28.807"/>
        <path stroke="#000" stroke-linecap="round" stroke-linejoin="round" stroke-width="1.302" d="M83 336l-9-10m9.5-21v31m0 36v-36"/>
        <path stroke="#606060" stroke-linecap="round" stroke-linejoin="round" stroke-width="4.744" d="M2.772 152.025c7.155-13.945 9.04-9.16 14.877 0 5.837 9.16 8.676 8.153 14.56 0 5.882-8.153 6.33-20.514 15.587 0 9.258 20.515 18.067 0 18.067 0"/>
        <path fill="#434E54" d="M472.079 248.236c5.762 7.856-13.397 26.365-34.494 27.432-9.73.492-48.26-.365-54.805.034-4.2.256-29.84 81.656-29.84 81.656h-10.503s11.176-75.258 15.784-87.257c4.648-12.105 32.278-33.445 68.32-37.505 6.298-.71 9.258 7.276 16.619 7.294 10.474.027 22.724-.1 28.919 8.346z"/>
        <path fill="#000" d="M425.58 52.712c-6.957.417-8.345 1.763-8.237 7.144.119 5.919.944 8.045 5.48 10.942 4.534 2.898 5.015.99 10.367 1.552 5.352.561 12.62 3.672 17.592 5.727 3.595 1.486 4.526 11.065 6.383 14.402.713 1.28 2.933.313 3.273-.45-.198-2.294.402-3.792 1.14-5.972.737-2.182 2.661-4.136 4.964-4.155 3.532-.027 5.241 1.547 5.924 5.013.39 1.97-1.8 4.5-1.118 7.92.356 1.783 2.152 8.802 1.705 10.751-.538 2.34 10.693-16.837 12.313-27.672 6.218-41.59-42.773-34.732-47.707-32.57-4.933 2.161-12.079 7.368-12.079 7.368"/>
        <path fill="#AC67AA" d="M494.723 167.095c-2.574 25.797-14.805 68.002-18.682 80.94a3.799 3.799 0 0 1-4.982 2.461l-42.427-15.976a3.803 3.803 0 0 1-2.459-3.729l2.69-60.27c-.118-15.57 6.513-31.094 16.327-43.62 6.79-8.666 23.193-6.404 25.994-5.945.29.048.567.126.838.237 3.419 1.394 26.088 11.962 22.701 45.902"/>
        <path fill="#CE72A8" d="M438.775 185.416c-26.52-8.447-32.862-6.669-59.383-15.116-1.613 6.005-2.408 5.67-4.02 11.676 23.719 12.273 34.53 23.21 61.17 25.088 43.15 3.042 50.179-57.609 46.004-64.996-4.175-7.386-15.946-12.555-22.338-6.975 0 0-20.301 31.067-21.433 50.323"/>
        <path fill="#DEA096" d="M355.241 163.67c3.24 2.57 7.331 4.398 11.367 5.304-2.559.97-5.409.12-8.01-.73-.438-.144-1.528-.43-1.595-.887-.2-1.343-1.762-3.687-1.762-3.687"/>
        <g>
            <g transform="translate(142 132.413)">
                <mask id="b" fill="#fff">
                    <use xlink:href="#a"/>
                </mask>
                <path fill="#CCC" d="M120.156 58.95c0 32.312-26.822 58.505-59.908 58.505S.34 91.262.34 58.951C.34 26.639 27.162.445 60.248.445s59.908 26.194 59.908 58.506" mask="url(#b)"/>
            </g>
            <g transform="translate(133.4 127.613)">
                <mask id="d" fill="#fff">
                    <use xlink:href="#c"/>
                </mask>
                <path fill="#879297" d="M65.848 10.446c-30.166 0-54.708 23.913-54.708 53.305s24.542 53.305 54.708 53.305c30.166 0 54.708-23.913 54.708-53.305S96.014 10.446 65.848 10.446m0 117.01C29.948 127.456.74 98.877.74 63.75.74 28.624 29.948.046 65.848.046c35.9 0 65.108 28.578 65.108 63.705 0 35.126-29.208 63.705-65.108 63.705" mask="url(#d)"/>
            </g>
            <g transform="translate(179 166.013)">
                <mask id="f" fill="#fff">
                    <use xlink:href="#e"/>
                </mask>
                <path fill="#FFF" d="M16.304 24.784h10.05c4.68 0 8.488-3.68 8.488-8.205v-.659c0-4.524-3.808-8.205-8.488-8.205h-10.05v17.07zm-3.6 27.135a3.6 3.6 0 0 1-3.6-3.6V31.984H3.829a3.6 3.6 0 0 1 0-7.2h5.275V5.24c0-2.604 2.132-4.724 4.751-4.724h12.5c8.65 0 15.687 6.91 15.687 15.405v.66c0 8.494-7.037 15.404-15.688 15.404h-10.05V48.32a3.6 3.6 0 0 1-3.6 3.6z" mask="url(#f)"/>
            </g>
            <path fill="#FFF" d="M206.792 209.264h-22.188a3.6 3.6 0 0 1 0-7.2h22.188a3.6 3.6 0 0 1 0 7.2"/>
        </g>
        <g>
            <path fill="#879297" d="M137.24 216.146h123.057v-5.356H137.239z"/>
            <path fill="#CCC" d="M359.388 154.803l6.141 5.521 2.586-.033-17.406-24.799h-6.67l12.19 18.242z"/>
            <path fill="#E0E6E9" d="M452.546 405.008h-190.46a8.073 8.073 0 0 1 0-16.145h190.46a8.072 8.072 0 1 1 0 16.145M308.136 320.923h-46.05a8.073 8.073 0 0 1 0-16.145h46.05a8.072 8.072 0 1 1 0 16.145"/>
            <path stroke="#434E54" stroke-linecap="round" stroke-linejoin="round" stroke-width="4.8" d="M444.008 321.798c6.694 4.466 11.105 12.088 11.105 20.74 0 7.759-3.548 14.69-9.11 19.258M434.861 328.85c4.334 2.891 7.189 7.826 7.189 13.427 0 5.023-2.296 9.51-5.897 12.468M426.908 337.167a5.765 5.765 0 0 1 2.571 4.802c0 1.796-.821 3.4-2.108 4.458"/>
            <path fill="#CE72A8" d="M303.512 110.888c-10.876-8.916-16.576-24.482-11.99-37.776 2.978-8.628 9.807-15.541 17.69-20.141 12.845-7.5 29.1-9.257 42.955-3.845 13.854 5.411 24.81 18.151 27.245 32.824 2.436 14.673-.074 27.596-12.61 35.6-1.928 1.23-11.948 4.429-11.948 4.429s-7.172 10.236-8.197 13.306c.211-.633-7.284-11.886-8.369-12.491-3.687-2.057-2.903-1.618-7.072-1.85-9.983-.556-19.892-3.654-27.704-10.056"/>
            <path stroke="#FFF" stroke-linecap="round" stroke-linejoin="round" stroke-width="4.8" d="M309.318 72.075h44.29l-4.307 22.06h-24.81l-3.608-14.605"/>
            <path fill="#FFF" d="M332.248 103.02a3.583 3.583 0 1 1-7.165 0 3.583 3.583 0 0 1 7.165 0M347.4 103.02a3.583 3.583 0 1 1-7.165 0 3.583 3.583 0 0 1 7.165 0"/>
        </g>
    </g>
</svg>
