<svg width="174" height="28" viewBox="0 0 174 28" fill="none" xmlns="http://www.w3.org/2000/svg">
<path fill-rule="evenodd" clip-rule="evenodd" d="M0 14.9279C0 19.4448 2.62402 24 8.50002 24C14.3707 24 17 19.4448 17 14.9279C17 11.8424 15.9217 8.28947 14.1221 5.41966C12.372 2.64838 10.2692 1 8.5 1C6.72583 1 4.62209 2.64838 2.88715 5.41966C1.07899 8.28947 0 11.8424 0 14.9279Z" fill="#C000D9"/>
<path d="M96.928 11.112C96.928 12.2793 96.605 13.1917 95.959 13.849C95.313 14.5063 94.3043 14.835 92.933 14.835H90.553V19H88.394V7.27H92.933C94.293 7.27 95.296 7.61567 95.942 8.307C96.5993 8.987 96.928 9.922 96.928 11.112ZM94.667 10.738C94.667 9.63867 94.021 9.089 92.729 9.089H90.553V13.016H92.729C94.021 13.016 94.667 12.4833 94.667 11.418V10.738ZM97.9588 16.671C97.9588 15.787 98.2364 15.141 98.7918 14.733C99.3471 14.325 100.208 14.0643 101.376 13.951L103.603 13.747V13.356C103.603 12.7667 103.467 12.3587 103.195 12.132C102.934 11.894 102.549 11.775 102.039 11.775C101.54 11.775 101.149 11.877 100.866 12.081C100.594 12.285 100.429 12.6193 100.373 13.084H98.2648C98.3214 12.166 98.6614 11.4633 99.2848 10.976C99.9194 10.4887 100.832 10.245 102.022 10.245C103.2 10.245 104.107 10.4943 104.742 10.993C105.376 11.4917 105.694 12.2907 105.694 13.39V19H103.705V17.912C103.093 18.762 102.158 19.187 100.9 19.187C99.9138 19.187 99.1771 18.949 98.6898 18.473C98.2024 17.997 97.9588 17.3963 97.9588 16.671ZM101.529 17.725C102.141 17.725 102.639 17.5607 103.025 17.232C103.41 16.9033 103.603 16.416 103.603 15.77V15.022L101.563 15.226C101.053 15.2827 100.673 15.3903 100.424 15.549C100.186 15.7077 100.067 15.9797 100.067 16.365V16.722C100.067 17.0507 100.191 17.3 100.441 17.47C100.69 17.64 101.053 17.725 101.529 17.725ZM108.779 20.751C109.233 20.751 109.561 20.6943 109.765 20.581C109.969 20.4677 110.134 20.2297 110.258 19.867L110.428 19.357L107.079 10.432H109.272L111.499 16.433L113.658 10.432H115.63L112.111 20.122C111.941 20.5867 111.771 20.9663 111.601 21.261C111.443 21.5557 111.256 21.788 111.04 21.958C110.825 22.128 110.57 22.2413 110.275 22.298C109.992 22.366 109.646 22.4 109.238 22.4H108.031V20.751H108.779ZM124.623 19H122.549V13.509C122.549 12.863 122.407 12.3983 122.124 12.115C121.852 11.8203 121.444 11.673 120.9 11.673C120.39 11.673 119.987 11.8203 119.693 12.115C119.409 12.3983 119.268 12.863 119.268 13.509V19H117.194V10.432H119.183V11.673C119.421 11.163 119.772 10.789 120.237 10.551C120.701 10.3017 121.228 10.177 121.818 10.177C123.11 10.177 123.948 10.6757 124.334 11.673C124.606 11.1743 124.985 10.8003 125.473 10.551C125.971 10.3017 126.538 10.177 127.173 10.177C128.159 10.177 128.873 10.449 129.315 10.993C129.757 11.5257 129.978 12.3643 129.978 13.509V19H127.904V13.509C127.904 12.863 127.762 12.3983 127.479 12.115C127.207 11.8203 126.799 11.673 126.255 11.673C125.745 11.673 125.342 11.8203 125.048 12.115C124.764 12.3983 124.623 12.863 124.623 13.509V19ZM136.006 17.657C136.494 17.657 136.913 17.5607 137.264 17.368C137.616 17.164 137.825 16.7843 137.893 16.229H139.967C139.831 17.2603 139.418 18.014 138.726 18.49C138.046 18.9547 137.14 19.187 136.006 19.187C134.578 19.187 133.53 18.8073 132.861 18.048C132.204 17.2773 131.875 16.1723 131.875 14.733C131.875 13.2823 132.21 12.1717 132.878 11.401C133.547 10.6303 134.59 10.245 136.006 10.245C137.287 10.245 138.262 10.568 138.93 11.214C139.599 11.86 139.933 12.8687 139.933 14.24V14.682H133.983V15.328C133.983 16.076 134.153 16.654 134.493 17.062C134.845 17.4587 135.349 17.657 136.006 17.657ZM135.989 11.775C135.377 11.775 134.913 11.9053 134.595 12.166C134.278 12.4153 134.085 12.812 134.017 13.356H137.774C137.718 12.8233 137.548 12.4267 137.264 12.166C136.992 11.9053 136.567 11.775 135.989 11.775ZM147.659 13.509C147.659 12.863 147.494 12.3983 147.166 12.115C146.837 11.8203 146.389 11.673 145.823 11.673C145.279 11.673 144.842 11.8203 144.514 12.115C144.185 12.3983 144.021 12.863 144.021 13.509V19H141.947V10.432H143.936V11.673C144.185 11.163 144.553 10.789 145.041 10.551C145.528 10.3017 146.095 10.177 146.741 10.177C147.727 10.177 148.469 10.449 148.968 10.993C149.478 11.537 149.733 12.3757 149.733 13.509V19H147.659V13.509ZM151.155 10.432H152.243V7.763H154.317V10.432H156.425V12.081H154.317V16.399C154.317 16.7503 154.385 16.9997 154.521 17.147C154.657 17.283 154.89 17.351 155.218 17.351H156.425V19H154.487C153.649 19 153.065 18.8187 152.736 18.456C152.408 18.082 152.243 17.4813 152.243 16.654V12.081H151.155V10.432ZM163.081 16.654C163.081 16.382 163.002 16.1723 162.843 16.025C162.696 15.8777 162.498 15.7643 162.248 15.685C161.999 15.5943 161.716 15.5263 161.398 15.481C161.081 15.4357 160.752 15.3903 160.412 15.345C160.084 15.2883 159.761 15.2147 159.443 15.124C159.126 15.022 158.843 14.8803 158.593 14.699C158.344 14.5177 158.14 14.2797 157.981 13.985C157.834 13.679 157.76 13.288 157.76 12.812C157.76 12.438 157.823 12.098 157.947 11.792C158.083 11.4747 158.287 11.2027 158.559 10.976C158.843 10.7493 159.205 10.5737 159.647 10.449C160.089 10.313 160.622 10.245 161.245 10.245C161.789 10.245 162.288 10.296 162.741 10.398C163.195 10.5 163.586 10.6643 163.914 10.891C164.243 11.1063 164.498 11.3953 164.679 11.758C164.872 12.1207 164.98 12.5627 165.002 13.084H162.911C162.9 12.812 162.849 12.591 162.758 12.421C162.668 12.251 162.549 12.115 162.401 12.013C162.254 11.911 162.078 11.843 161.874 11.809C161.682 11.775 161.478 11.758 161.262 11.758C160.775 11.758 160.418 11.8487 160.191 12.03C159.965 12.2 159.851 12.4323 159.851 12.727C159.851 13.0897 159.982 13.3503 160.242 13.509C160.503 13.6677 160.832 13.7923 161.228 13.883C161.625 13.9623 162.05 14.036 162.503 14.104C162.968 14.1607 163.399 14.274 163.795 14.444C164.192 14.6027 164.521 14.8463 164.781 15.175C165.042 15.4923 165.172 15.9513 165.172 16.552C165.172 17.3907 164.866 18.0423 164.254 18.507C163.642 18.9603 162.719 19.187 161.483 19.187C160.928 19.187 160.412 19.1303 159.936 19.017C159.472 18.915 159.064 18.745 158.712 18.507C158.361 18.269 158.078 17.963 157.862 17.589C157.647 17.215 157.522 16.7617 157.488 16.229H159.596C159.642 16.773 159.84 17.1527 160.191 17.368C160.554 17.572 160.985 17.674 161.483 17.674C161.971 17.674 162.356 17.5947 162.639 17.436C162.934 17.2773 163.081 17.0167 163.081 16.654Z" fill="#C000D9"/>
<path d="M35.115 15.753C35.115 16.9203 34.7183 17.7873 33.925 18.354C33.1317 18.9093 32.0097 19.187 30.559 19.187C29.0403 19.187 27.8787 18.9037 27.074 18.337C26.2807 17.759 25.85 16.824 25.782 15.532H28.026C28.0713 16.2687 28.3037 16.7787 28.723 17.062C29.1423 17.3453 29.7487 17.487 30.542 17.487C31.29 17.487 31.8737 17.3623 32.293 17.113C32.7123 16.8523 32.922 16.4273 32.922 15.838C32.922 15.43 32.82 15.1127 32.616 14.886C32.4233 14.648 32.1627 14.461 31.834 14.325C31.5167 14.189 31.1483 14.087 30.729 14.019C30.321 13.9397 29.9017 13.8603 29.471 13.781C29.0403 13.6903 28.6153 13.5827 28.196 13.458C27.788 13.322 27.4197 13.135 27.091 12.897C26.7623 12.6477 26.496 12.3247 26.292 11.928C26.0993 11.52 26.003 11.0043 26.003 10.381C26.003 9.31567 26.3827 8.49967 27.142 7.933C27.9013 7.36633 28.9667 7.083 30.338 7.083C31.698 7.083 32.7803 7.34367 33.585 7.865C34.3897 8.375 34.8203 9.21367 34.877 10.381H32.633C32.5763 9.75767 32.344 9.33833 31.936 9.123C31.5393 8.89633 31.0067 8.783 30.338 8.783C29.658 8.783 29.131 8.91333 28.757 9.174C28.383 9.42333 28.196 9.82 28.196 10.364C28.196 10.8627 28.366 11.231 28.706 11.469C29.046 11.6957 29.471 11.8713 29.981 11.996C30.5023 12.1207 31.0577 12.2283 31.647 12.319C32.2477 12.4097 32.803 12.574 33.313 12.812C33.8343 13.0387 34.265 13.3787 34.605 13.832C34.945 14.2853 35.115 14.9257 35.115 15.753ZM36.1796 10.432H37.2676V7.763H39.3416V10.432H41.4496V12.081H39.3416V16.399C39.3416 16.7503 39.4096 16.9997 39.5456 17.147C39.6816 17.283 39.914 17.351 40.2426 17.351H41.4496V19H39.5116C38.673 19 38.0893 18.8187 37.7606 18.456C37.432 18.082 37.2676 17.4813 37.2676 16.654V12.081H36.1796V10.432ZM48.4118 12.183H47.3578C46.5758 12.183 46.0148 12.336 45.6748 12.642C45.3461 12.9367 45.1818 13.424 45.1818 14.104V19H43.1078V10.432H45.0968V11.945C45.2895 11.4577 45.5785 11.0837 45.9638 10.823C46.3605 10.5623 46.8648 10.432 47.4768 10.432H48.4118V12.183ZM53.6362 17.657C54.1236 17.657 54.5429 17.5607 54.8942 17.368C55.2456 17.164 55.4552 16.7843 55.5232 16.229H57.5972C57.4612 17.2603 57.0476 18.014 56.3562 18.49C55.6762 18.9547 54.7696 19.187 53.6362 19.187C52.2082 19.187 51.1599 18.8073 50.4912 18.048C49.8339 17.2773 49.5052 16.1723 49.5052 14.733C49.5052 13.2823 49.8396 12.1717 50.5082 11.401C51.1769 10.6303 52.2196 10.245 53.6362 10.245C54.9169 10.245 55.8916 10.568 56.5602 11.214C57.2289 11.86 57.5632 12.8687 57.5632 14.24V14.682H51.6132V15.328C51.6132 16.076 51.7832 16.654 52.1232 17.062C52.4746 17.4587 52.9789 17.657 53.6362 17.657ZM53.6192 11.775C53.0072 11.775 52.5426 11.9053 52.2252 12.166C51.9079 12.4153 51.7152 12.812 51.6472 13.356H55.4042C55.3476 12.8233 55.1776 12.4267 54.8942 12.166C54.6222 11.9053 54.1972 11.775 53.6192 11.775ZM59.1345 16.671C59.1345 15.787 59.4122 15.141 59.9675 14.733C60.5229 14.325 61.3842 14.0643 62.5515 13.951L64.7785 13.747V13.356C64.7785 12.7667 64.6425 12.3587 64.3705 12.132C64.1099 11.894 63.7245 11.775 63.2145 11.775C62.7159 11.775 62.3249 11.877 62.0415 12.081C61.7695 12.285 61.6052 12.6193 61.5485 13.084H59.4405C59.4972 12.166 59.8372 11.4633 60.4605 10.976C61.0952 10.4887 62.0075 10.245 63.1975 10.245C64.3762 10.245 65.2829 10.4943 65.9175 10.993C66.5522 11.4917 66.8695 12.2907 66.8695 13.39V19H64.8805V17.912C64.2685 18.762 63.3335 19.187 62.0755 19.187C61.0895 19.187 60.3529 18.949 59.8655 18.473C59.3782 17.997 59.1345 17.3963 59.1345 16.671ZM62.7045 17.725C63.3165 17.725 63.8152 17.5607 64.2005 17.232C64.5859 16.9033 64.7785 16.416 64.7785 15.77V15.022L62.7385 15.226C62.2285 15.2827 61.8489 15.3903 61.5995 15.549C61.3615 15.7077 61.2425 15.9797 61.2425 16.365V16.722C61.2425 17.0507 61.3672 17.3 61.6165 17.47C61.8659 17.64 62.2285 17.725 62.7045 17.725ZM76.651 19H74.577V13.509C74.577 12.863 74.4354 12.3983 74.152 12.115C73.88 11.8203 73.472 11.673 72.928 11.673C72.418 11.673 72.0157 11.8203 71.721 12.115C71.4377 12.3983 71.296 12.863 71.296 13.509V19H69.222V10.432H71.211V11.673C71.449 11.163 71.8004 10.789 72.265 10.551C72.7297 10.3017 73.2567 10.177 73.846 10.177C75.138 10.177 75.9767 10.6757 76.362 11.673C76.634 11.1743 77.0137 10.8003 77.501 10.551C77.9997 10.3017 78.5664 10.177 79.201 10.177C80.187 10.177 80.901 10.449 81.343 10.993C81.785 11.5257 82.006 12.3643 82.006 13.509V19H79.932V13.509C79.932 12.863 79.7904 12.3983 79.507 12.115C79.235 11.8203 78.827 11.673 78.283 11.673C77.773 11.673 77.3707 11.8203 77.076 12.115C76.7927 12.3983 76.651 12.863 76.651 13.509V19Z" fill="#C000D9"/>
</svg>
