<svg xmlns="http://www.w3.org/2000/svg" width="42" height="67" viewBox="0 0 42 67">
    <path fill="#76D4FF" fill-rule="nonzero" d="M36 0H6C2.684 0 0 2.724 0 6.09v54.82C0 64.275 2.684 67 6 67h30c3.316 0 6-2.724 6-6.09V6.09C42 2.725 39.316 0 36 0zM25.5 60.91h-9c-.832 0-1.5-.679-1.5-1.524 0-.844.668-1.522 1.5-1.522h9c.832 0 1.5.678 1.5 1.522 0 .845-.668 1.523-1.5 1.523zm8.496-9.137H8.004C6.89 51.773 6 50.869 6 49.738V11.171c0-1.13.89-2.035 2.004-2.035h26.004c1.101 0 1.992.904 1.992 2.035v38.58c0 1.118-.89 2.022-2.004 2.022z"/>
</svg>
