<svg xmlns="http://www.w3.org/2000/svg" width="70" height="69" viewBox="0 0 70 69">
    <path fill="#76D4FF" fill-rule="nonzero" d="M61.469.006a1.63 1.63 0 0 0-.175.044c-.651.149-1.11.737-1.094 1.407 0 2.672-1.23 4.14-3.5 5.585-2.27 1.446-5.55 2.616-8.925 4.046-3.374 1.429-6.869 3.15-9.581 6.024-2.467 2.616-4.178 6.211-4.463 11.037-2.52-.209-4.09-1.022-5.775-1.89-2.056-1.062-4.408-2.287-8.356-2.287-8.427 0-19.6 19.254-19.6 33.77C0 64.373 3.456 69 8.4 69c7.427 0 12.469-4.051 16.931-7.607 3.413-2.721 6.382-5.057 9.669-5.057 3.287 0 6.256 2.336 9.669 5.057C49.13 64.949 54.173 69 61.6 69c4.944 0 8.4-4.628 8.4-11.257 0-14.517-11.173-33.771-19.6-33.771-3.948 0-6.3 1.225-8.356 2.286-1.614.836-3.128 1.6-5.469 1.847.273-4.139 1.646-6.91 3.675-9.058 2.264-2.402 5.36-4.024 8.619-5.409 3.26-1.385 6.611-2.501 9.319-4.221C60.895 7.697 63 5.118 63 1.457a1.403 1.403 0 0 0-1.531-1.45zM51.8 36.636c1.548 0 2.8 1.259 2.8 2.814a2.806 2.806 0 0 1-2.8 2.814A2.806 2.806 0 0 1 49 39.45a2.806 2.806 0 0 1 2.8-2.814zm-35 1.407H21v4.221h4.2v4.222H21v4.221h-4.2v-4.221h-4.2v-4.222h4.2v-4.221zm29.4 4.221c1.548 0 2.8 1.26 2.8 2.815a2.806 2.806 0 0 1-2.8 2.814 2.806 2.806 0 0 1-2.8-2.814 2.806 2.806 0 0 1 2.8-2.815zm11.2 0c1.548 0 2.8 1.26 2.8 2.815a2.806 2.806 0 0 1-2.8 2.814 2.806 2.806 0 0 1-2.8-2.814 2.806 2.806 0 0 1 2.8-2.815zm-5.6 5.629c1.548 0 2.8 1.259 2.8 2.814a2.806 2.806 0 0 1-2.8 2.815 2.806 2.806 0 0 1-2.8-2.815 2.806 2.806 0 0 1 2.8-2.814z"/>
</svg>
