<svg xmlns="http://www.w3.org/2000/svg" width="51" height="69" viewBox="0 0 51 69">
    <path fill="#76D4FF" fill-rule="nonzero" d="M47.605 9.66c-2.363 0-3.443 1.639-3.443 3.493V31.74c0 .76-.613 1.38-1.375 1.38-.758 0-1.413-.62-1.413-1.38V6.183c.027-1.671-1.005-3.423-3.411-3.423-2.407 0-3.443 1.881-3.443 3.46v24.156c0 .766-.618 1.38-1.375 1.38-.763 0-1.397-.614-1.397-1.374V3.46C31.748 2.065 30.674 0 28.326 0c-2.353 0-3.448 2.065-3.448 3.46v28.28c0 .76-.618 1.38-1.376 1.38-.757 0-1.38-.62-1.38-1.38V9.035c0-2.534-2.057-3.456-3.443-3.456-1.327 0-3.433.895-3.433 3.3v35.69c-.054.033-.118.044-.182.065l-.006-.064-6.876-8.28c-1.788-1.93-4.813-1.93-6.736 0-1.928 1.8-1.928 4.83 0 6.765l.15.2c.05.129.097.258.189.371L13.5 58.731l3.755 4.884-.005-.049.483.626c.006 0 .006 0 .011.005 2.149 2.857 5.404 4.555 9.008 4.765.172.011.36.022.554.027.059 0 .118.011.177.011.005 0 .01-.005.021-.005.038 0 .076.005.118.005h11.002C44.71 69 51 64.353 51 56.58V13.223c0-1.897-1.026-3.563-3.395-3.563zM41.4 51.08L33.5 59l-7.899-7.92A5.274 5.274 0 0 1 24 47.294C24 44.37 26.364 42 29.28 42c1.734 0 3.255.85 4.22 2.148C34.465 42.85 35.986 42 37.72 42c2.916 0 5.28 2.37 5.28 5.295a5.274 5.274 0 0 1-1.601 3.784z"/>
</svg>
