<svg xmlns="http://www.w3.org/2000/svg" width="46" height="60" viewBox="0 0 46 60">
    <path fill="#76D4FF" fill-rule="nonzero" d="M23 0C13.443 0 5.75 7.645 5.75 17.143V20C2.583 20 0 22.567 0 25.714v28.572C0 57.433 2.583 60 5.75 60h34.5c3.167 0 5.75-2.567 5.75-5.714V25.714C46 22.567 43.417 20 40.25 20v-2.857C40.25 7.645 32.557 0 23 0zm0 5.714c6.547 0 11.5 4.922 11.5 11.429V20h-23v-2.857c0-6.507 4.953-11.429 11.5-11.429zm0 28.572c3.167 0 5.75 2.567 5.75 5.714 0 3.147-2.583 5.714-5.75 5.714S17.25 43.147 17.25 40c0-3.147 2.583-5.714 5.75-5.714z"/>
</svg>
