<svg xmlns="http://www.w3.org/2000/svg" width="73" height="70" viewBox="0 0 73 70">
    <path fill="#76D4FF" fill-rule="nonzero" d="M35 0C15.7 0 0 15.7 0 35s15.7 35 35 35c12.51 0 23.481-6.63 29.668-16.532l5.059-3.748a2.909 2.909 0 0 0 1.219-2.176 2.975 2.975 0 0 0-.912-2.324l2.028-1.914a2.911 2.911 0 0 0 .752-3.202 2.913 2.913 0 0 0-2.723-1.868c-.091.011-.17.011-.262.022A34.08 34.08 0 0 0 70 35a2.934 2.934 0 0 0-1.447-2.563 2.944 2.944 0 0 0-2.94 0A2.934 2.934 0 0 0 64.168 35c0 16.144-13.023 29.167-29.167 29.167C18.856 64.167 5.833 51.144 5.833 35 5.833 18.856 18.856 5.833 35 5.833c7.839 0 14.891 3.1 20.132 8.112l-2.962 2.963c-1.06 1.048-.456 2.848 1.014 3.053l11.803 1.686c1.185.182 2.21-.843 2.04-2.04L65.34 7.817c-.205-1.481-2.016-2.074-3.065-1.026l-3.03 3.031C52.955 3.76 44.41 0 35 0zm-8.397 23.345c-.49.034-.991.102-1.492.216-2.94.615-5.458 2.689-6.7 5.412-4.34 9.445 7.999 18.901 13.775 22.684a5.147 5.147 0 0 0 5.628 0C43.59 47.874 55.93 38.418 51.59 28.973c-1.242-2.723-3.772-4.797-6.7-5.412-4.044-.866-7.736.82-9.889 3.714-1.891-2.529-4.945-4.135-8.397-3.93z"/>
</svg>
