<svg xmlns="http://www.w3.org/2000/svg" width="58" height="60" viewBox="0 0 58 60">
    <path fill="#76D4FF" fill-rule="nonzero" d="M2.308 0A2.312 2.312 0 0 0 0 2.308v48.461A9.225 9.225 0 0 0 9.23 60h39.232a9.225 9.225 0 0 0 9.23-9.23V18.461a2.312 2.312 0 0 0-2.307-2.308h-4.616v34.615a2.306 2.306 0 0 1-2.307 2.308 2.306 2.306 0 0 1-2.308-2.308V2.308A2.312 2.312 0 0 0 43.846 0H2.308zm4.615 9.23h32.308v6.924H6.923V9.23zm0 16.155H20.77V30H6.923v-4.615zm18.462 0H39.23V30H25.385v-4.615zm-18.462 9.23H20.77v4.616H6.923v-4.616zm18.462 0H39.23v4.616H25.385v-4.616zM6.923 43.846H20.77v4.616H6.923v-4.616zm18.462 0H39.23v4.616H25.385v-4.616z"/>
</svg>
