<svg xmlns="http://www.w3.org/2000/svg" width="60" height="60" viewBox="0 0 60 60">
    <path fill="#76D4FF" fill-rule="nonzero" d="M54.545 0H5.455A5.451 5.451 0 0 0 0 5.455v49.09A5.451 5.451 0 0 0 5.455 60h49.09A5.451 5.451 0 0 0 60 54.545V5.455A5.451 5.451 0 0 0 54.545 0zm-8.181 39.418c0 3.09-2.493 6.914-8.182 6.914-5.071 0-6.36-3.26-6.36-5.455 0-2.706 1.63-5.465 6.37-5.465 4.283 0 4.539-1.087 4.539-3.25V21.18l-19.997 3.26v18.079c0 3.09-2.493 6.573-8.181 6.573-5.071 0-6.36-3.25-6.36-5.444 0-2.706 1.63-5.476 6.37-5.476 4.283 0 4.539-1.086 4.539-3.25V16.365c0-.895.66-1.609 1.523-1.758l23.693-3.676s.16-.02.235-.02a1.81 1.81 0 0 1 1.81 1.81v26.698z"/>
</svg>
