<svg xmlns="http://www.w3.org/2000/svg" width="71" height="60" viewBox="0 0 71 60">
    <path fill="#76D4FF" fill-rule="nonzero" d="M5.455 0A5.451 5.451 0 0 0 0 5.455v49.09A5.451 5.451 0 0 0 5.455 60h60a5.451 5.451 0 0 0 5.454-5.455V10.91a5.451 5.451 0 0 0-5.454-5.454H25.089l-1.683-2.813A5.444 5.444 0 0 0 18.729 0H5.455zm10.909 16.364h2.727v2.727h5.454v-2.727h21.819v2.727h5.454v-2.727h2.727a2.733 2.733 0 0 1 2.728 2.727v27.273a2.733 2.733 0 0 1-2.728 2.727h-2.727v-2.727h-5.454v2.727H24.545v-2.727h-5.454v2.727h-2.727a2.733 2.733 0 0 1-2.728-2.727V19.09a2.733 2.733 0 0 1 2.728-2.727zm2.727 8.181V30h5.454v-5.455h-5.454zm27.273 0V30h5.454v-5.455h-5.454zM19.09 35.455v5.454h5.454v-5.454h-5.454zm27.273 0v5.454h5.454v-5.454h-5.454z"/>
</svg>
