<svg xmlns="http://www.w3.org/2000/svg" width="70" height="96" viewBox="0 0 70 96">
    <path fill="#76D4FF" fill-rule="nonzero" d="M10.938 0C4.904 0 0 4.892 0 10.91v74.18C0 91.109 4.905 96 10.938 96h39.374c6.033 0 10.938-4.892 10.938-10.91V74.183H8.75V13.09h52.5v-2.182C61.25 4.892 56.345 0 50.312 0H10.938zm19.687 21.818v8.727h26.643a6.541 6.541 0 0 0 3.982 3.99v18.22a6.473 6.473 0 0 0-3.982 3.972H30.625v8.728h35c2.41 0 4.375-1.96 4.375-4.364V26.18c0-2.403-1.965-4.363-4.375-4.363h-35zm0 13.091v17.455c4.836 0 8.75-3.904 8.75-8.728s-3.914-8.727-8.75-8.727zm17.5 4.364a4.367 4.367 0 0 0-4.375 4.363A4.367 4.367 0 0 0 48.125 48a4.367 4.367 0 0 0 4.375-4.364 4.367 4.367 0 0 0-4.375-4.363zM30.625 78a4.917 4.917 0 0 1 4.922 4.91c0 2.71-2.205 4.908-4.922 4.908a4.917 4.917 0 0 1-4.922-4.909c0-2.71 2.205-4.909 4.922-4.909z"/>
</svg>
