<svg xmlns="http://www.w3.org/2000/svg" width="106" height="96" viewBox="0 0 106 96">
    <path fill="#76D4FF" fill-rule="nonzero" d="M94.478 0H11.522C5.167 0 0 5.125 0 11.429v54.857c0 6.303 5.167 11.428 11.522 11.428h9.541c.783 6.616-1.188 11.107-6.12 14.045a2.287 2.287 0 0 0-1.036 2.562A2.309 2.309 0 0 0 16.13 96c5.896 0 20.064-1.821 26.923-18.286h51.425c6.355 0 11.522-5.125 11.522-11.428V11.429C106 5.125 100.833 0 94.478 0zM29.957 43.429c-2.548 0-4.61-2.045-4.61-4.572s2.062-4.571 4.61-4.571c2.547 0 4.608 2.044 4.608 4.571 0 2.527-2.061 4.572-4.608 4.572zm23.043 0c-2.547 0-4.609-2.045-4.609-4.572s2.062-4.571 4.609-4.571 4.609 2.044 4.609 4.571c0 2.527-2.062 4.572-4.609 4.572zm23.043 0c-2.547 0-4.608-2.045-4.608-4.572s2.061-4.571 4.608-4.571c2.548 0 4.61 2.044 4.61 4.571 0 2.527-2.062 4.572-4.61 4.572z"/>
</svg>
