<svg xmlns="http://www.w3.org/2000/svg" width="86" height="96" viewBox="0 0 86 96">
    <path fill="#76D4FF" fill-rule="nonzero" d="M76.444.4c0 2.616-2.146 4.75-4.777 4.75-2.632 0-4.778-2.134-4.778-4.75h-9.556c0 2.616-2.146 4.75-4.777 4.75-2.632 0-4.778-2.134-4.778-4.75h-9.556c0 2.616-2.146 4.75-4.778 4.75-2.631 0-4.777-2.134-4.777-4.75H19.11c0 2.616-2.146 4.75-4.778 4.75-2.631 0-4.777-2.134-4.777-4.75H0v95h9.556c0-2.616 2.146-4.75 4.777-4.75 2.632 0 4.778 2.134 4.778 4.75h9.556c0-2.616 2.146-4.75 4.777-4.75 2.632 0 4.778 2.134 4.778 4.75h9.556c0-2.616 2.146-4.75 4.778-4.75 2.631 0 4.777 2.134 4.777 4.75h9.556c0-2.616 2.146-4.75 4.778-4.75 2.631 0 4.777 2.134 4.777 4.75H86V.4h-9.556zm-4.777 71.25H14.333v-9.5h57.334v9.5zm0-19H14.333v-9.5h57.334v9.5zm0-19H14.333v-9.5h57.334v9.5z"/>
</svg>
