<svg xmlns="http://www.w3.org/2000/svg" width="120" height="96" viewBox="0 0 120 96">
    <path fill="#76D4FF" fill-rule="nonzero" d="M0 0v64h78.125c-2.094-2.328-3.64-5.063-4.688-8h-57.78c.218-.64.343-1.313.343-2 0-3.313-2.688-6-6-6-.688 0-1.36.125-2 .36V15.64c.64.235 1.313.36 2 .36 3.313 0 6-2.688 6-6 0-.688-.125-1.36-.344-2H88.36A5.804 5.804 0 0 0 88 10c0 3.313 2.688 6 6 6 .688 0 1.36-.125 2-.36V28h8V0H0zm52 16c-8.844 0-16 7.156-16 16v4h.813C38.608 42.844 44.578 48 52 48c4.86 0 9.094-2.094 12-5.406V28h3.453C65.72 21.031 59.578 16 52 16zm0 8c4.563 0 8 3.438 8 8 0 4.563-3.438 8-8 8-4.766 0-8-3.234-8-8s3.234-8 8-8zm-28 2c-3.313 0-6 2.688-6 6 0 3.313 2.688 6 6 6 3.313 0 6-2.688 6-6 0-3.313-2.688-6-6-6zm48 6v8h4v8c0 6.406 3.203 12.406 8 16-4.797 3.594-8 9.594-8 16v8h-4v8h48v-8h-4v-8c0-6.406-3.203-12.406-8-16 4.797-3.594 8-9.594 8-16v-8h4v-8H72zm12 8h24v8c0 6.797-5.203 12-12 12s-12-5.203-12-12v-8zm4 8s0 8 8 8 8-8 8-8H88zm8 20c6.797 0 12 5.203 12 12v8h-4c0-4.406-3.594-8-8-8-4.406 0-8 3.594-8 8h-4v-8c0-6.797 5.203-12 12-12z"/>
</svg>
