<svg xmlns="http://www.w3.org/2000/svg" width="301" height="198" viewBox="0 0 301 198">
    <g fill="none" fill-rule="evenodd" transform="translate(5 2)">
        <path fill="#1C1C1C" d="M54.042 51.3h132.3V135h-132.3z"/>
        <g transform="translate(36.042 17.1)">
            <rect width="166.5" height="41.4" fill="#000" rx="9"/>
            <circle cx="18.9" cy="20.7" r="5.4" fill="#00AFFF"/>
            <circle cx="37.8" cy="20.7" r="5.4" fill="#CE72A8"/>
            <circle cx="56.7" cy="20.7" r="5.4" fill="#FFF"/>
            <rect width="34.2" height="19.8" x="78.3" y="10.8" fill="#434E54" rx="3.6"/>
            <rect width="6.3" height="27" x="149.4" y="7.2" fill="#434E54" rx="3.15"/>
            <rect width="6.3" height="27" x="139.5" y="7.2" fill="#434E54" rx="3.15"/>
            <rect width="6.3" height="27" x="129.6" y="7.2" fill="#434E54" rx="3.15"/>
        </g>
        <g transform="translate(36.042 65.7)">
            <rect width="166.5" height="41.4" fill="#000" rx="9"/>
            <circle cx="18.9" cy="20.7" r="5.4" fill="#00AFFF"/>
            <circle cx="37.8" cy="20.7" r="5.4" fill="#CE72A8"/>
            <circle cx="56.7" cy="20.7" r="5.4" fill="#FFF"/>
            <rect width="34.2" height="19.8" x="78.3" y="10.8" fill="#434E54" rx="3.6"/>
            <rect width="6.3" height="27" x="149.4" y="7.2" fill="#434E54" rx="3.15"/>
            <rect width="6.3" height="27" x="139.5" y="7.2" fill="#434E54" rx="3.15"/>
            <rect width="6.3" height="27" x="129.6" y="7.2" fill="#434E54" rx="3.15"/>
        </g>
        <g transform="translate(36.042 114.3)">
            <rect width="166.5" height="41.4" fill="#000" rx="9"/>
            <circle cx="18.9" cy="20.7" r="5.4" fill="#00AFFF"/>
            <circle cx="37.8" cy="20.7" r="5.4" fill="#CE72A8"/>
            <circle cx="56.7" cy="20.7" r="5.4" fill="#FFF"/>
            <rect width="34.2" height="19.8" x="78.3" y="10.8" fill="#434E54" rx="3.6"/>
            <rect width="6.3" height="27" x="149.4" y="7.2" fill="#434E54" rx="3.15"/>
            <rect width="6.3" height="27" x="139.5" y="7.2" fill="#434E54" rx="3.15"/>
            <rect width="6.3" height="27" x="129.6" y="7.2" fill="#434E54" rx="3.15"/>
        </g>
        <circle cx="23.442" cy="5.4" r="5.4" stroke="#FFBFCC" stroke-width="3.6"/>
        <path fill="#8E003F" fill-rule="nonzero" d="M218.046 16.714v-4.528h-3.804V9.957h3.804V5.4h2.293v4.557h3.803v2.23h-3.803v4.527z"/>
        <path stroke="#6D2D79" stroke-linecap="round" stroke-linejoin="round" stroke-width="8.1" d="M0 91.8h11.616"/>
        <path stroke="#D8D8D8" stroke-width="1.8" d="M99.973 191.695l-5.637 2.964a.9.9 0 0 1-1.306-.949l1.077-6.277a.9.9 0 0 0-.26-.797l-4.56-4.446a.9.9 0 0 1 .499-1.535l6.303-.916a.9.9 0 0 0 .677-.492l2.82-5.712a.9.9 0 0 1 1.613 0l2.82 5.712a.9.9 0 0 0 .677.492l6.303.916a.9.9 0 0 1 .499 1.535l-4.561 4.446a.9.9 0 0 0-.26.797l1.078 6.277a.9.9 0 0 1-1.306.95l-5.638-2.965a.9.9 0 0 0-.838 0z"/>
        <rect width="161.1" height="88.2" x="134.142" y="98.1" fill="#00AFFF" rx="44.1"/>
        <g fill="#FFF" transform="matrix(0 1 1 0 181.842 112.5)">
            <path d="M.45 23.85h58.5v8.55c0 16.154-13.096 29.25-29.25 29.25S.45 48.554.45 32.4v-8.55z"/>
            <rect width="10.8" height="27.9" x="13.05" y=".45" rx="3.6"/>
            <rect width="10.8" height="27.9" x="35.55" y=".45" rx="3.6"/>
            <rect width="10.8" height="27.9" x="23.85" y="56.25" rx="3.6"/>
        </g>
        <circle cx="273.642" cy="74.7" r="3.6" fill="#00AFFF"/>
        <circle cx="25.242" cy="175.5" r="3.6" fill="#00AFFF"/>
    </g>
</svg>
