<svg xmlns="http://www.w3.org/2000/svg" width="337" height="188" viewBox="0 0 337 188">
    <g fill="none" fill-rule="evenodd" transform="translate(3)">
        <path fill="#CE72A8" d="M181.6 19.2c5.744 0 10.4 4.656 10.4 10.4v44.353a8.8 8.8 0 0 1-8.8 8.8h-42.187c-5.662 0-10.267 4.525-10.397 10.155l-.003.245V100c-.001 4.86-3.941 8.8-8.801 8.8H22.4c-5.744 0-10.4-4.656-10.4-10.4V29.6c0-5.744 4.656-10.4 10.4-10.4h159.2z"/>
        <rect width="180" height="89.6" x="139.2" y="92" fill="#AC67AA" rx="10.4"/>
        <g stroke="#00AFFF" stroke-linecap="round" stroke-linejoin="round" stroke-width="8.32">
            <path d="M58.4 124.8c4.445 11.593 10.412 19.45 17.902 23.573 7.489 4.123 18.855 5.807 34.098 5.052"/>
            <path d="M100 142.4l10.4 11.314L100 164"/>
        </g>
        <g stroke="#00AFFF" stroke-linecap="round" stroke-linejoin="round" stroke-width="8.32">
            <path d="M271.59 66.957c-6.785-10.541-14.274-17.072-22.466-19.592-8.192-2.52-19.664-1.823-34.415 2.093"/>
            <path d="M227.223 58.313l-12.551-9.028 8.01-12.335"/>
        </g>
        <circle cx="230.4" cy="138.4" r="25.6" fill="#CD91CB"/>
        <circle cx="103.2" cy="63.2" r="25.6" fill="#E88BC2"/>
        <path fill="#FFF" d="M228.08 138.64h4.51c2.101 0 3.81-1.794 3.81-4v-.32c0-2.206-1.709-4-3.81-4h-4.51v8.32zm-1.695 11.44c-.89 0-1.612-.718-1.612-1.602v-7.271h-2.361c-.89 0-1.612-.718-1.612-1.603 0-.884.722-1.602 1.612-1.602h2.361v-8.7c0-1.159.955-2.102 2.128-2.102h5.595c3.873 0 7.024 3.076 7.024 6.857v.293c0 3.781-3.15 6.857-7.024 6.857h-4.5v7.27c0 .885-.72 1.603-1.61 1.603z"/>
        <path stroke="#FFF" stroke-linecap="round" stroke-linejoin="round" stroke-width="3.12" d="M221.84 144.88h10.4"/>
        <path fill="#FFF" d="M101.68 64.24h4.51c2.101 0 3.81-1.794 3.81-4v-.32c0-2.206-1.709-4-3.81-4h-4.51v8.32zm-1.695 11.44c-.89 0-1.612-.718-1.612-1.602v-7.271h-2.361c-.89 0-1.612-.718-1.612-1.603 0-.884.722-1.602 1.612-1.602h2.361v-8.7c0-1.159.955-2.102 2.128-2.102h5.595c3.873 0 7.024 3.076 7.024 6.857v.293c0 3.781-3.15 6.857-7.024 6.857h-4.5v7.27c0 .885-.72 1.603-1.61 1.603z"/>
        <path stroke="#FFF" stroke-linecap="round" stroke-linejoin="round" stroke-width="3.12" d="M95.44 70.48h10.4"/>
        <circle cx="11.6" cy="23.6" r="9.2" stroke="#FFBFCC" stroke-width="3.2"/>
        <circle cx="304" cy="181.6" r="4.8" stroke="#FFBFCC" stroke-width="3.2"/>
        <path stroke="#6D2D79" stroke-linecap="round" stroke-linejoin="round" stroke-width="7.2" d="M.8 79.6l-.204-.204"/>
        <path stroke="#E9B8F2" stroke-linecap="round" stroke-linejoin="round" stroke-width="7.2" d="M192.8 58l-.204-.204"/>
        <path stroke="#6D2D79" stroke-linecap="round" stroke-linejoin="round" stroke-width="7.2" d="M319.2 123.6h10.325"/>
        <path stroke="#D8D8D8" stroke-width="1.6" d="M204.428 10.996l-2.425 1.275a.8.8 0 0 1-1.161-.844l.463-2.7a.8.8 0 0 0-.23-.708l-1.962-1.912a.8.8 0 0 1 .444-1.365l2.71-.394a.8.8 0 0 0 .603-.438l1.213-2.456a.8.8 0 0 1 1.434 0l1.213 2.456a.8.8 0 0 0 .602.438l2.711.394a.8.8 0 0 1 .444 1.365l-1.962 1.912a.8.8 0 0 0-.23.708l.463 2.7a.8.8 0 0 1-1.16.844l-2.426-1.275a.8.8 0 0 0-.744 0z"/>
        <path fill="#8E003F" fill-rule="nonzero" d="M6.459 126.4v-2.881H4v-1.42h2.459V119.2H7.94v2.9H10.4v1.419H7.941v2.881z"/>
    </g>
</svg>
