<svg xmlns="http://www.w3.org/2000/svg" width="268" height="228" viewBox="0 0 268 228">
    <g fill="none" fill-rule="evenodd" transform="translate(5)">
        <path fill="#000" d="M208.655 200.28h-79.128c-6.24 0-11.298-5.054-11.298-11.289V41.823c0-6.234 5.058-11.287 11.298-11.287h79.128c6.24 0 11.298 5.053 11.298 11.287v147.168c0 6.235-5.059 11.288-11.298 11.288"/>
        <path fill="#FFF" d="M203.985 174.25h-69.788c-4.591 0-8.313-3.718-8.313-8.304V51.774c0-4.587 3.722-8.305 8.313-8.305h69.788c4.59 0 8.312 3.718 8.312 8.305v114.172c0 4.586-3.721 8.305-8.312 8.305"/>
        <path stroke="#606060" stroke-linecap="round" stroke-linejoin="round" stroke-width="2.775" d="M175.502 187.6a6.409 6.409 0 0 1-6.411 6.406 6.408 6.408 0 0 1-6.412-6.406 6.408 6.408 0 0 1 6.412-6.405 6.409 6.409 0 0 1 6.411 6.405z"/>
        <path fill="#555" d="M180.44 39.296h-18.81a1.762 1.762 0 1 1 0-3.522h18.81a1.762 1.762 0 1 1 0 3.522"/>
        <circle cx="244.5" cy="220.3" r="5.5" stroke="#FFBFCC" stroke-width="3.6"/>
        <circle cx="202.5" cy="8.6" r="5.4" stroke="#FFBFCC" stroke-width="3.6"/>
        <path stroke="#6D2D79" stroke-linecap="round" stroke-linejoin="round" stroke-width="8.1" d="M0 143h24.3M246.6 135.05h11.616"/>
        <path stroke="#D8D8D8" stroke-width="3.6" d="M34.581 59.72l-4.433 2.33a.9.9 0 0 1-1.305-.948l.846-4.936a.9.9 0 0 0-.259-.797l-3.586-3.495a.9.9 0 0 1 .499-1.535l4.956-.72a.9.9 0 0 0 .678-.493l2.216-4.49a.9.9 0 0 1 1.614 0l2.216 4.49a.9.9 0 0 0 .678.492l4.956.72a.9.9 0 0 1 .499 1.536l-3.586 3.495a.9.9 0 0 0-.26.797l.847 4.936a.9.9 0 0 1-1.305.949l-4.433-2.33a.9.9 0 0 0-.838 0z"/>
        <path fill="#8E003F" fill-rule="nonzero" d="M62.42 7.2V4.319H60v-1.42h2.42V0h1.46v2.9h2.42v1.419h-2.42V7.2zM241.403 180.5v-4.322H237.6v-2.128h3.803v-4.35h2.294v4.35h3.803v2.128h-3.803v4.322z"/>
        <circle cx="91" cy="166" r="57" fill="#CE72A8"/>
        <g fill="#00AFFF" transform="translate(75 74)">
            <circle cx="4.5" cy="4.5" r="4.5"/>
        </g>
        <g>
            <circle cx="22.5" cy="22.5" r="22.5" fill="#00AFFF" transform="translate(148 86)"/>
            <path stroke="#FFF" stroke-linecap="round" stroke-linejoin="round" stroke-width="6.3" d="M162.4 110.12l5.897 4.68 11.203-11.7"/>
        </g>
        <g fill="#FFF">
            <path d="M86.708 165.714h9.82c4.573 0 8.294-3.597 8.294-8.017v-.644c0-4.42-3.72-8.018-8.294-8.018h-9.82v16.68zM83.19 192.23a3.518 3.518 0 0 1-3.518-3.518V172.75h-5.154a3.518 3.518 0 0 1 0-7.036h5.154v-19.098c0-2.545 2.084-4.616 4.643-4.616h12.213c8.453 0 15.33 6.752 15.33 15.053v.644c0 8.3-6.877 15.053-15.33 15.053h-9.82v15.961a3.518 3.518 0 0 1-3.518 3.518z"/>
            <path d="M97.933 183.76h-21.68a3.518 3.518 0 0 1 0-7.036h21.68a3.518 3.518 0 0 1 0 7.035"/>
        </g>
    </g>
</svg>
