<svg xmlns="http://www.w3.org/2000/svg" width="287" height="182" viewBox="0 0 287 182">
    <g fill="none" fill-rule="evenodd" transform="translate(4)">
        <g fill="#CE72A8" transform="translate(11.2 6.4)">
            <circle cx="47.84" cy="104" r="47.84"/>
            <circle cx="89.44" cy="47.84" r="47.84"/>
            <path d="M47.84 104H166.4v47.84H47.84z"/>
            <circle cx="106.08" cy="104" r="47.84"/>
            <circle cx="165.36" cy="104" r="47.84"/>
            <circle cx="153.92" cy="66.56" r="40.56"/>
        </g>
        <path stroke="#FFF" stroke-linecap="round" stroke-linejoin="round" stroke-width="7.28" d="M100.63 77.43c-9.373 9.372-9.373 24.568 0 33.94 9.372 9.373 24.568 9.373 33.94 0 9.373-9.372 9.373-24.568 0-33.94M118 68v24.8"/>
        <path fill="#000" d="M235.07 181.581h-70.335c-5.546 0-10.043-4.492-10.043-10.033V40.732c0-5.541 4.497-10.033 10.043-10.033h70.336c5.546 0 10.043 4.492 10.043 10.033v130.816c0 5.541-4.497 10.033-10.043 10.033"/>
        <path fill="#FFF" d="M230.92 158.445h-62.034a7.386 7.386 0 0 1-7.39-7.382V49.577a7.385 7.385 0 0 1 7.39-7.382h62.034a7.385 7.385 0 0 1 7.389 7.382v101.486a7.385 7.385 0 0 1-7.389 7.382"/>
        <path stroke="#606060" stroke-linecap="round" stroke-linejoin="round" stroke-width="2.467" d="M205.602 170.311a5.697 5.697 0 0 1-5.7 5.694c-3.147 0-5.698-2.549-5.698-5.694a5.696 5.696 0 0 1 5.699-5.693c3.147 0 5.699 2.549 5.699 5.693z"/>
        <path fill="#555" d="M209.992 38.485H193.27a1.566 1.566 0 1 1 0-3.13h16.72a1.566 1.566 0 1 1 0 3.13"/>
        <rect width="86.4" height="47.2" x="180" y="64" fill="#00AFFF" rx="10.4"/>
        <path fill="#00AFFF" d="M200.8 106.4l3.955 12.999a2.08 2.08 0 0 0 3.621.685L219.2 106.4h-18.4z"/>
        <rect width="62.4" height="6.4" x="191.2" y="76" fill="#FFF" rx="3.2"/>
        <rect width="28.8" height="6.4" x="191.2" y="88.8" fill="#FFF" rx="3.2"/>
        <circle cx="31.2" cy="149.6" r="4.8" stroke="#FFBFCC" stroke-width="3.2"/>
        <circle cx="229.6" cy="11.2" r="4.8" stroke="#FFBFCC" stroke-width="3.2"/>
        <path stroke="#6D2D79" stroke-linecap="round" stroke-linejoin="round" stroke-width="7.2" d="M0 98.8h21.6M268.8 123.6h10.325"/>
        <path stroke="#D8D8D8" stroke-width="1.6" d="M38.028 17.396l-2.425 1.275a.8.8 0 0 1-1.161-.844l.463-2.7a.8.8 0 0 0-.23-.708l-1.962-1.912a.8.8 0 0 1 .444-1.365l2.71-.394a.8.8 0 0 0 .603-.438l1.213-2.456a.8.8 0 0 1 1.434 0l1.213 2.456a.8.8 0 0 0 .602.438l2.711.394a.8.8 0 0 1 .444 1.365l-1.962 1.912a.8.8 0 0 0-.23.708l.463 2.7a.8.8 0 0 1-1.16.844l-2.426-1.275a.8.8 0 0 0-.744 0z"/>
        <path fill="#8E003F" fill-rule="nonzero" d="M148.551 6.4V3.839H146.4V2.578h2.151V0h1.298v2.578H152v1.26h-2.151V6.4zM262.951 160.8v-2.561H260.8v-1.261h2.151V154.4h1.298v2.578h2.151v1.26h-2.151v2.562z"/>
    </g>
</svg>
