<svg xmlns="http://www.w3.org/2000/svg" width="324" height="202" viewBox="0 0 324 202">
    <g fill="none" fill-rule="evenodd" transform="translate(4.127)">
        <rect width="204" height="142" x="60.873" y="28" fill="#D8D8D8" rx="7"/>
        <path fill="#FFF" d="M63.873 47h198v113a7 7 0 0 1-7 7h-184a7 7 0 0 1-7-7V47z"/>
        <g transform="translate(67.873 34)">
            <circle cx="4.2" cy="4.2" r="4.2" fill="#00AFFF"/>
            <circle cx="18.9" cy="4.2" r="4.2" fill="#6D2D79"/>
            <circle cx="33.6" cy="4.2" r="4.2" fill="#FFF"/>
        </g>
        <circle cx="262.873" cy="143" r="57" fill="#CE72A8"/>
        <g transform="translate(32.873 58)">
            <circle cx="28" cy="28" r="28" fill="#000"/>
            <path fill="#FFF" fill-rule="nonzero" d="M28.7 33.6a2.8 2.8 0 1 0 0-5.6 2.8 2.8 0 0 0 0 5.6zm8.4-12.133c1.546 0 2.8 1.223 2.8 2.733v13.667c0 1.51-1.254 2.733-2.8 2.733H20.3c-1.546 0-2.8-1.224-2.8-2.733V24.2c0-1.517 1.26-2.733 2.8-2.733h1.4v-2.734c0-3.774 3.134-6.833 7-6.833 1.857 0 3.637.72 4.95 2.001a6.752 6.752 0 0 1 2.05 4.832v2.734h1.4zM28.7 14.7a4.2 4.2 0 0 0-4.2 4.2v2.8h8.4v-2.8a4.2 4.2 0 0 0-4.2-4.2z"/>
        </g>
        <g fill="#FFF">
            <path d="M259.626 143.783h9.85c4.586 0 8.318-3.607 8.318-8.04v-.646c0-4.434-3.732-8.041-8.318-8.041h-9.85v16.727zm-3.528 26.593a3.528 3.528 0 0 1-3.528-3.528v-16.009h-5.17a3.528 3.528 0 0 1 0-7.056h5.17V124.63c0-2.553 2.09-4.63 4.656-4.63h12.25c8.477 0 15.374 6.772 15.374 15.097v.646c0 8.324-6.897 15.096-15.374 15.096h-9.85v16.009a3.528 3.528 0 0 1-3.528 3.528z"/>
            <path d="M270.884 161.881H249.14a3.528 3.528 0 0 1 0-7.056h21.744a3.528 3.528 0 0 1 0 7.056"/>
        </g>
        <g fill="#00AFFF">
            <path d="M121.676 86.278h48.586v8.876h-48.586a2.803 2.803 0 0 1-2.803-2.803v-3.27a2.803 2.803 0 0 1 2.803-2.803z"/>
            <path d="M159.984 81.58v18.74a2.803 2.803 0 0 0 4.477 2.248l12.59-9.37a2.803 2.803 0 0 0 0-4.497l-12.59-9.37a2.803 2.803 0 0 0-4.477 2.25z"/>
        </g>
        <g fill="#CE72A8">
            <path d="M193.273 119.2h-48v9h48a3.6 3.6 0 0 0 3.6-3.6v-1.8a3.6 3.6 0 0 0-3.6-3.6z"/>
            <path d="M155.473 116.244v15.512a3.6 3.6 0 0 1-5.774 2.87l-10.239-7.756a3.6 3.6 0 0 1 0-5.74l10.239-7.756a3.6 3.6 0 0 1 5.774 2.87z"/>
        </g>
        <path stroke="#D8D8D8" stroke-width="2" d="M281.407 13.745l-3.031 1.593a1 1 0 0 1-1.451-1.054l.579-3.375a1 1 0 0 0-.288-.885l-2.452-2.39a1 1 0 0 1 .554-1.707l3.39-.492a1 1 0 0 0 .752-.547l1.516-3.071a1 1 0 0 1 1.793 0l1.516 3.071a1 1 0 0 0 .753.547l3.389.492a1 1 0 0 1 .554 1.706l-2.452 2.39a1 1 0 0 0-.288.886l.58 3.375a1 1 0 0 1-1.452 1.054l-3.031-1.593a1 1 0 0 0-.93 0z"/>
        <circle cx="54.873" cy="194" r="6" stroke="#FFBFCC" stroke-width="4"/>
        <path stroke="#6D2D79" stroke-linecap="round" stroke-linejoin="round" stroke-width="9" d="M35.873 151h27"/>
        <path fill="#8E003F" fill-rule="nonzero" d="M306.099 76v-4.802h-4.226v-2.365h4.226V64h2.548v4.833h4.226v2.365h-4.226V76z"/>
        <path stroke="#6D2D79" stroke-linecap="round" stroke-linejoin="round" stroke-width="9" d="M1 92.627l-.255-.254"/>
        <circle cx="201.373" cy="185.5" r="4.5" fill="#00AFFF"/>
    </g>
</svg>
